<svg xmlns="http://www.w3.org/2000/svg" viewBox="0 0 197 174"><defs><style>.cls-1{fill:#96e2ea;}.cls-2{fill:#0c6382;}</style></defs><g id="pattern_remake" data-name="pattern remake"><polygon class="cls-1" points="42.4 30.21 39.34 32.22 41.24 33.32 40.74 34.19 38.85 33.1 38.62 36.75 37.63 36.69 37.88 32.54 33.65 30.09 33.16 38.21 32.16 38.15 32.68 29.53 28.45 27.09 28.23 30.75 27.23 30.69 27.48 26.53 22 23.37 22 29.7 25.73 31.56 25.28 32.45 22 30.81 22 35.7 29.73 39.56 29.28 40.45 22 36.81 22 41.7 25.73 43.56 25.28 44.45 22 42.81 22 45 21 45 21 42.81 17.73 44.45 17.28 43.56 21 41.7 21 36.81 13.73 40.45 13.28 39.56 21 35.7 21 30.81 17.73 32.45 17.28 31.56 21 29.7 21 23.38 15.52 26.54 15.78 30.69 14.78 30.75 14.55 27.1 10.33 29.53 10.85 38.15 9.85 38.21 9.36 30.09 5.13 32.54 5.38 36.69 4.39 36.75 4.16 33.1 2.27 34.19 1.77 33.32 3.67 32.22 0.61 30.21 1.16 29.37 4.64 31.66 8.87 29.22 2.07 24.74 2.62 23.91 9.83 28.66 14.06 26.23 11 24.21 11.55 23.37 15.03 25.67 20.5 22.51 15.02 19.34 11.55 21.63 11 20.8 14.05 18.78 9.83 16.34 2.62 21.1 2.07 20.27 8.86 15.78 4.63 13.34 1.16 15.63 0.61 14.8 3.66 12.78 1.77 11.69 2.27 10.82 4.16 11.91 4.39 8.26 5.38 8.32 5.13 12.47 9.36 14.92 9.85 6.8 10.85 6.86 10.33 15.48 14.55 17.91 14.78 14.26 15.78 14.32 15.52 18.47 21 21.63 21 15.31 17.28 13.45 17.73 12.56 21 14.2 21 9.31 13.28 5.45 13.73 4.56 21 8.2 21 3.31 17.28 1.45 17.73 0.56 21 2.2 21 0 22 0 22 2.2 25.28 0.56 25.73 1.45 22 3.31 22 8.2 29.28 4.56 29.73 5.45 22 9.31 22 14.2 25.28 12.56 25.73 13.45 22 15.31 22 21.64 27.48 18.48 27.23 14.32 28.23 14.26 28.45 17.92 32.68 15.48 32.16 6.86 33.16 6.8 33.65 14.92 37.88 12.47 37.63 8.32 38.62 8.26 38.85 11.91 40.74 10.82 41.24 11.69 39.35 12.78 42.4 14.8 41.85 15.63 38.38 13.34 34.15 15.78 40.93 20.27 40.38 21.1 33.18 16.34 28.95 18.78 32.01 20.8 31.46 21.63 27.99 19.34 22.51 22.51 27.98 25.66 31.46 23.37 32.01 24.21 28.95 26.22 33.17 28.66 40.38 23.91 40.93 24.74 34.14 29.22 38.37 31.66 41.85 29.37 42.4 30.21"/><circle class="cls-2" cx="122" cy="25" r="1"/><polygon class="cls-1" points="99.6 101.79 102.66 99.78 100.76 98.68 101.26 97.81 103.15 98.9 103.38 95.25 104.37 95.31 104.12 99.46 108.35 101.91 108.84 93.79 109.84 93.85 109.32 102.47 113.55 104.91 113.77 101.25 114.77 101.31 114.52 105.47 120 108.63 120 102.3 116.27 100.44 116.72 99.55 120 101.19 120 96.3 112.27 92.44 112.72 91.55 120 95.19 120 90.3 116.27 88.44 116.72 87.55 120 89.19 120 87 121 87 121 89.19 124.27 87.55 124.72 88.44 121 90.3 121 95.19 128.27 91.55 128.72 92.44 121 96.3 121 101.19 124.27 99.55 124.72 100.44 121 102.3 121 108.62 126.48 105.46 126.22 101.31 127.22 101.25 127.45 104.9 131.67 102.47 131.15 93.85 132.15 93.79 132.64 101.91 136.87 99.46 136.62 95.31 137.61 95.25 137.84 98.9 139.73 97.81 140.23 98.68 138.33 99.78 141.39 101.79 140.84 102.63 137.36 100.34 133.13 102.78 139.93 107.26 139.38 108.09 132.17 103.34 127.94 105.77 131 107.79 130.45 108.63 126.97 106.33 121.5 109.49 126.98 112.66 130.45 110.37 131 111.2 127.95 113.22 132.17 115.66 139.38 110.9 139.93 111.73 133.14 116.22 137.37 118.66 140.84 116.37 141.39 117.2 138.34 119.22 140.23 120.31 139.73 121.18 137.84 120.09 137.61 123.74 136.62 123.68 136.87 119.53 132.64 117.08 132.15 125.2 131.15 125.14 131.67 116.52 127.45 114.09 127.22 117.74 126.22 117.68 126.48 113.53 121 110.37 121 116.69 124.72 118.55 124.27 119.44 121 117.8 121 122.69 128.72 126.55 128.27 127.44 121 123.8 121 128.69 124.72 130.55 124.27 131.44 121 129.8 121 132 120 132 120 129.8 116.72 131.44 116.27 130.55 120 128.69 120 123.8 112.72 127.44 112.27 126.55 120 122.69 120 117.8 116.72 119.44 116.27 118.55 120 116.69 120 110.36 114.52 113.52 114.77 117.68 113.77 117.74 113.55 114.08 109.32 116.52 109.84 125.14 108.84 125.2 108.35 117.08 104.12 119.53 104.37 123.68 103.38 123.74 103.15 120.09 101.26 121.18 100.76 120.31 102.65 119.22 99.6 117.2 100.15 116.37 103.62 118.66 107.85 116.22 101.07 111.73 101.62 110.9 108.82 115.66 113.05 113.22 109.99 111.2 110.54 110.37 114.01 112.66 119.49 109.49 114.02 106.34 110.54 108.63 109.99 107.79 113.05 105.78 108.83 103.34 101.62 108.09 101.07 107.26 107.86 102.78 103.63 100.34 100.15 102.63 99.6 101.79"/><circle class="cls-2" cx="21" cy="112" r="1"/></g></svg>